<svg xmlns="http://www.w3.org/2000/svg" xmlns:xlink="http://www.w3.org/1999/xlink" version="1.1" x="0px" y="0px" viewBox="0 0 100 125" enable-background="new 0 0 100 100" xml:space="preserve"><g><g><g><path d="M85.26,24.15c-5.37,0-9.74,4.37-9.74,9.74c0,2.9,1.271,5.5,3.29,7.28L68.91,58.53c-0.94-0.311-1.95-0.471-2.99-0.471     c-2.75,0-5.229,1.15-7,2.99l-11.6-7.27c0.39-1.05,0.6-2.181,0.6-3.36c0-5.37-4.37-9.74-9.74-9.74c-5.37,0-9.74,4.37-9.74,9.74     c0,2.22,0.75,4.271,2.01,5.91l-10.35,12c-1.4-0.771-3-1.21-4.7-1.21c-5.37,0-9.74,4.37-9.74,9.74S10.03,86.6,15.4,86.6     s9.74-4.369,9.74-9.739c0-2.221-0.75-4.271-2.01-5.91l10.34-12.01c1.4,0.779,3.01,1.22,4.71,1.22c2.75,0,5.24-1.15,7-2.99     l11.61,7.271c-0.39,1.05-0.6,2.18-0.6,3.359c0,5.37,4.359,9.73,9.729,9.73s9.74-4.36,9.74-9.73c0-2.89-1.271-5.49-3.28-7.27     l9.9-17.38c0.939,0.31,1.939,0.47,2.979,0.47c5.37,0,9.74-4.36,9.74-9.73C95,28.52,90.63,24.15,85.26,24.15z M15.4,82.6     c-3.17,0-5.74-2.58-5.74-5.739c0-3.17,2.57-5.74,5.74-5.74c0.7,0,1.37,0.12,1.99,0.36c1.29,0.47,2.37,1.409,3.03,2.6     c0.46,0.83,0.72,1.77,0.72,2.78C21.14,80.02,18.56,82.6,15.4,82.6z M43.8,51.57v0.01c-0.28,1.37-1.06,2.57-2.13,3.39     c-0.96,0.75-2.18,1.19-3.49,1.19c-0.7,0-1.37-0.12-1.99-0.37c-1.29-0.47-2.37-1.41-3.04-2.6c-0.45-0.82-0.71-1.771-0.71-2.771     c0-3.16,2.58-5.74,5.74-5.74c3.16,0,5.74,2.58,5.74,5.74C43.92,50.82,43.88,51.2,43.8,51.57z M65.92,73.53     c-3.16,0-5.729-2.57-5.729-5.73c0-0.399,0.04-0.78,0.119-1.149V66.64c0.28-1.38,1.051-2.569,2.12-3.39     c0.971-0.75,2.181-1.19,3.49-1.19c0.32,0,0.63,0.03,0.93,0.08c1.391,0.221,2.61,0.95,3.471,1.98c0.84,1,1.34,2.28,1.34,3.68     C71.66,70.96,69.09,73.53,65.92,73.53z M85.26,39.62c-0.31,0-0.62-0.03-0.92-0.08c-1.39-0.22-2.609-0.94-3.479-1.98     c-0.841-0.99-1.341-2.27-1.341-3.67c0-3.17,2.58-5.74,5.74-5.74c3.17,0,5.74,2.57,5.74,5.74C91,37.05,88.43,39.62,85.26,39.62z"/></g></g></g><text x="0" y="115" fill="#000000" font-size="5px" font-weight="bold" font-family="'Helvetica Neue', Helvetica, Arial-Unicode, Arial, Sans-serif">Created by b a r z i n</text><text x="0" y="120" fill="#000000" font-size="5px" font-weight="bold" font-family="'Helvetica Neue', Helvetica, Arial-Unicode, Arial, Sans-serif">from the Noun Project</text></svg>